<svg width="205" height="81" viewBox="0 0 205 81" fill="none" xmlns="http://www.w3.org/2000/svg">
<path d="M185.171 67.0438H19.9338C16.2324 67.0438 13.3242 63.9912 13.3242 60.4078V20.592C13.3242 16.8759 16.3646 13.9561 19.9338 13.9561H185.171C188.873 13.9561 191.781 17.0086 191.781 20.592V60.4078C191.781 63.9912 188.873 67.0438 185.171 67.0438Z" fill="black"/>
<path d="M185.171 15.0178C188.212 15.0178 190.723 17.5395 190.723 20.592V60.4078C190.723 63.4604 188.212 65.982 185.171 65.982H19.9338C16.8934 65.982 14.3818 63.4604 14.3818 60.4078V20.592C14.3818 17.5395 16.8934 15.0178 19.9338 15.0178H185.171ZM185.171 13.9561H19.9338C16.2324 13.9561 13.3242 17.0086 13.3242 20.592V60.4078C13.3242 64.1239 16.3646 67.0438 19.9338 67.0438H185.171C188.873 67.0438 191.781 63.9912 191.781 60.4078V20.592C191.781 17.0086 188.873 13.9561 185.171 13.9561Z" fill="#A6A6A6"/>
<path d="M103.346 42.8887C100.173 42.8887 97.6616 45.2776 97.6616 48.5956C97.6616 51.7809 100.173 54.3026 103.346 54.3026C106.518 54.3026 109.03 51.9136 109.03 48.5956C109.03 45.1449 106.518 42.8887 103.346 42.8887ZM103.346 51.9136C101.627 51.9136 100.173 50.4537 100.173 48.4629C100.173 46.4721 101.627 45.0122 103.346 45.0122C105.064 45.0122 106.518 46.3394 106.518 48.4629C106.518 50.4537 105.064 51.9136 103.346 51.9136ZM91.0521 42.8887C87.8795 42.8887 85.3679 45.2776 85.3679 48.5956C85.3679 51.7809 87.8795 54.3026 91.0521 54.3026C94.2247 54.3026 96.7363 51.9136 96.7363 48.5956C96.7363 45.1449 94.2247 42.8887 91.0521 42.8887ZM91.0521 51.9136C89.3336 51.9136 87.8795 50.4537 87.8795 48.4629C87.8795 46.4721 89.3336 45.0122 91.0521 45.0122C92.7706 45.0122 94.2246 46.3394 94.2246 48.4629C94.2246 50.4537 92.7706 51.9136 91.0521 51.9136ZM76.379 44.614V47.003H82.0632C81.931 48.3302 81.4022 49.3919 80.7412 50.0555C79.9481 50.8519 78.6262 51.7809 76.379 51.7809C72.8098 51.7809 70.166 48.9938 70.166 45.4104C70.166 41.8269 72.942 39.0398 76.379 39.0398C78.2296 39.0398 79.6837 39.8361 80.7412 40.7652L82.4597 39.0398C81.0056 37.7126 79.155 36.6509 76.5112 36.6509C71.7523 36.6509 67.6544 40.6325 67.6544 45.4104C67.6544 50.1883 71.7523 54.1698 76.5112 54.1698C79.155 54.1698 81.0056 53.3735 82.5919 51.6482C84.1782 50.0555 84.707 47.7993 84.707 46.074C84.707 45.5431 84.707 45.0122 84.5748 44.614H76.379ZM136.393 46.4721C135.865 45.1449 134.543 42.8887 131.634 42.8887C128.726 42.8887 126.347 45.1449 126.347 48.5956C126.347 51.7809 128.726 54.3026 131.899 54.3026C134.41 54.3026 135.997 52.7099 136.525 51.7809L134.675 50.4537C134.014 51.3827 133.221 52.0463 131.899 52.0463C130.577 52.0463 129.784 51.5155 129.123 50.321L136.658 47.1357L136.393 46.4721ZM128.726 48.3302C128.726 46.2067 130.445 45.0122 131.634 45.0122C132.56 45.0122 133.485 45.5431 133.75 46.2067L128.726 48.3302ZM122.513 53.7717H125.025V37.1818H122.513V53.7717ZM118.548 44.0832C117.887 43.4196 116.829 42.756 115.507 42.756C112.731 42.756 110.087 45.2776 110.087 48.4629C110.087 51.6482 112.599 54.0371 115.507 54.0371C116.829 54.0371 117.887 53.3735 118.415 52.7099H118.548V53.5062C118.548 55.6297 117.358 56.8242 115.507 56.8242C114.053 56.8242 112.996 55.7625 112.731 54.8334L110.616 55.7625C111.277 57.2224 112.863 59.0805 115.639 59.0805C118.548 59.0805 120.927 57.3551 120.927 53.2408V43.1541H118.548V44.0832ZM115.639 51.9136C113.921 51.9136 112.467 50.4537 112.467 48.4629C112.467 46.4721 113.921 45.0122 115.639 45.0122C117.358 45.0122 118.68 46.4721 118.68 48.4629C118.68 50.4537 117.358 51.9136 115.639 51.9136ZM147.894 37.1818H141.945V53.7717H144.457V47.5339H147.894C150.67 47.5339 153.314 45.5431 153.314 42.3578C153.314 39.1725 150.67 37.1818 147.894 37.1818ZM148.026 45.1449H144.457V39.438H148.026C149.877 39.438 150.934 41.0306 150.934 42.2251C150.802 43.685 149.745 45.1449 148.026 45.1449ZM163.228 42.756C161.377 42.756 159.527 43.5523 158.866 45.2776L161.113 46.2067C161.642 45.2776 162.435 45.0122 163.36 45.0122C164.682 45.0122 165.872 45.8085 166.004 47.1357V47.2684C165.607 47.003 164.55 46.6048 163.492 46.6048C161.113 46.6048 158.733 47.932 158.733 50.321C158.733 52.5772 160.716 54.0371 162.831 54.0371C164.55 54.0371 165.343 53.2408 166.004 52.4445H166.136V53.7717H168.516V47.4011C168.251 44.4813 166.004 42.756 163.228 42.756ZM162.964 51.9136C162.17 51.9136 160.981 51.5154 160.981 50.4537C160.981 49.1265 162.435 48.7283 163.624 48.7283C164.682 48.7283 165.211 48.9938 165.872 49.2592C165.607 50.8518 164.285 51.9136 162.964 51.9136ZM176.844 43.1541L174.068 50.321H173.935L171.027 43.1541H168.383L172.746 53.2408L170.234 58.815H172.746L179.487 43.1541H176.844ZM154.636 53.7717H157.147V37.1818H154.636V53.7717Z" fill="white"/>
<path d="M27.0721 23.9099C26.6755 24.3081 26.4111 24.9717 26.4111 25.768V55.0989C26.4111 55.8953 26.6755 56.5589 27.0721 56.957L27.2043 57.0897L43.5959 40.6325V40.4998V40.3671L27.0721 23.9099Z" fill="url(#paint0_linear)"/>
<path d="M49.0157 46.2072L43.5959 40.7657V40.5002V40.3675L49.0157 34.926L49.1479 35.0587L55.6252 38.7749C57.4759 39.8366 57.4759 41.562 55.6252 42.6237L49.0157 46.2072Z" fill="url(#paint1_linear)"/>
<path d="M49.1479 46.0742L43.5959 40.5L27.0721 57.0899C27.7331 57.7535 28.6584 57.7535 29.8481 57.2226L49.1479 46.0742Z" fill="url(#paint2_linear)"/>
<path d="M49.1479 34.9259L29.8481 23.9102C28.6584 23.2466 27.7331 23.3793 27.0721 24.0429L43.5959 40.5001L49.1479 34.9259Z" fill="url(#paint3_linear)"/>
<path opacity="0.2" d="M49.0157 45.9417L29.8481 56.8246C28.7906 57.4882 27.8653 57.3555 27.2043 56.8246L27.0721 56.9574L27.2043 57.0901C27.8653 57.621 28.7906 57.7537 29.8481 57.0901L49.0157 45.9417Z" fill="black"/>
<path opacity="0.12" d="M27.0721 56.8246C26.6755 56.4265 26.5434 55.7629 26.5434 54.9666V55.0993C26.5434 55.8956 26.8077 56.5592 27.2043 56.9574V56.8246H27.0721Z" fill="black"/>
<path opacity="0.12" d="M55.6252 42.2253L49.0157 45.9415L49.1478 46.0742L55.6252 42.3581C56.5505 41.8272 56.9471 41.1636 56.9471 40.5C56.9471 41.1636 56.4183 41.6945 55.6252 42.2253Z" fill="black"/>
<path opacity="0.25" d="M29.8481 24.0429L55.6252 38.7747C56.4183 39.3056 56.9471 39.8365 56.9471 40.5001C56.9471 39.8365 56.5505 39.1729 55.6252 38.642L29.8481 23.9102C27.9974 22.8484 26.5434 23.7774 26.5434 25.9009V26.0337C26.5434 23.9102 27.9974 22.9811 29.8481 24.0429Z" fill="white"/>
<path d="M185.172 15.0178C188.212 15.0178 190.724 17.5395 190.724 20.592V60.4078C190.724 63.4603 188.212 65.982 185.172 65.982H19.934C16.8936 65.982 14.382 63.4603 14.382 60.4078V20.592C14.382 17.5395 16.8936 15.0178 19.934 15.0178H185.172ZM185.172 13.9561H19.934C16.2327 13.9561 13.3245 17.0086 13.3245 20.592V60.4078C13.3245 64.1239 16.3649 67.0438 19.934 67.0438H185.172C188.873 67.0438 191.781 63.9912 191.781 60.4078V20.592C191.781 17.0086 188.873 13.9561 185.172 13.9561Z" fill="#A6A6A6"/>
<path d="M68.9764 32.9348H68.0511V30.2805H68.8442C69.5052 29.7496 69.9017 28.6878 69.9017 27.2279V23.2463H75.1894V30.2805H76.1147V32.9348H75.1894V31.2095H69.1086V32.9348H68.9764ZM70.8271 27.2279C70.8271 28.4224 70.5627 29.4841 70.0339 30.2805H73.9997V24.3081H70.6949V27.2279H70.8271Z" fill="white" stroke="white" stroke-width="0.2" stroke-miterlimit="10"/>
<path d="M83.9139 30.1479C83.1208 30.9442 82.1955 31.3424 81.0058 31.3424C79.8161 31.3424 78.8907 30.9442 78.0976 30.1479C77.3044 29.3516 76.9079 28.4225 76.9079 27.2281C76.9079 26.0336 77.3044 25.1046 78.0976 24.3082C78.8907 23.5119 79.8161 23.1138 81.0058 23.1138C82.1955 23.1138 83.1208 23.5119 83.9139 24.3082C84.7071 25.1046 85.1037 26.0336 85.1037 27.2281C85.1037 28.4225 84.7071 29.3516 83.9139 30.1479ZM78.8907 29.4843C79.4195 30.0152 80.2126 30.4133 81.0058 30.4133C81.7989 30.4133 82.592 30.1479 83.1208 29.4843C83.6496 28.9534 84.0461 28.1571 84.0461 27.2281C84.0461 26.299 83.7817 25.5027 83.1208 24.9718C82.592 24.441 81.7989 24.0428 81.0058 24.0428C80.2126 24.0428 79.4195 24.3082 78.8907 24.9718C78.362 25.5027 77.9654 26.299 77.9654 27.2281C77.9654 28.1571 78.2298 28.9534 78.8907 29.4843Z" fill="white" stroke="white" stroke-width="0.2" stroke-miterlimit="10"/>
<path d="M90.2591 31.3424C89.0694 31.3424 88.144 30.9442 87.3509 30.1479C86.5578 29.3516 86.1612 28.4225 86.1612 27.2281C86.1612 26.0336 86.5578 25.1046 87.3509 24.3082C88.144 23.5119 89.0694 23.1138 90.2591 23.1138C91.4488 23.1138 92.3741 23.5119 93.1673 24.441L92.5063 25.1046C91.9776 24.441 91.1844 24.0428 90.2591 24.0428C89.3338 24.0428 88.6728 24.3082 88.0119 24.9718C87.3509 25.5027 87.0865 26.299 87.0865 27.2281C87.0865 28.1571 87.3509 28.9534 88.0119 29.4843C88.5406 30.0152 89.3338 30.4133 90.2591 30.4133C91.1844 30.4133 91.9776 30.0152 92.6385 29.2189L93.2995 29.8825C92.9029 30.2806 92.5063 30.6788 91.9776 30.9442C91.4488 31.2096 90.92 31.3424 90.2591 31.3424Z" fill="white" stroke="white" stroke-width="0.2" stroke-miterlimit="10"/>
<path d="M97.5295 31.2095H96.472V24.1754H94.2247V23.2463H99.6445V24.1754H97.3973V31.2095H97.5295Z" fill="white" stroke="white" stroke-width="0.2" stroke-miterlimit="10"/>
<path d="M106.651 23.2463L103.61 30.015C103.214 30.9441 102.553 31.4749 101.76 31.4749C101.495 31.4749 101.231 31.4749 100.966 31.3422L101.231 30.4132C101.363 30.5459 101.627 30.5459 101.76 30.5459C102.024 30.5459 102.156 30.5459 102.288 30.4132C102.421 30.2805 102.553 30.1477 102.685 29.8823L102.949 29.2187L100.306 23.3791H101.495L103.478 27.8915L105.329 23.3791H106.651V23.2463Z" fill="white" stroke="white" stroke-width="0.2" stroke-miterlimit="10"/>
<path d="M107.84 31.2095V23.2463H113.524V31.2095H112.467V24.1754H108.766V31.2095H107.84Z" fill="white" stroke="white" stroke-width="0.2" stroke-miterlimit="10"/>
<path d="M115.375 31.2095V23.2463H116.433V26.697H120.398V23.2463H121.456V31.2095H120.398V27.6261H116.433V31.2095H115.375Z" fill="white" stroke="white" stroke-width="0.2" stroke-miterlimit="10"/>
<path d="M129.784 30.1479C128.991 30.9442 128.065 31.3424 126.876 31.3424C125.686 31.3424 124.761 30.9442 123.968 30.1479C123.174 29.3516 122.778 28.4225 122.778 27.2281C122.778 26.0336 123.174 25.1046 123.968 24.3082C124.761 23.5119 125.686 23.1138 126.876 23.1138C128.065 23.1138 128.991 23.5119 129.784 24.3082C130.577 25.1046 130.974 26.0336 130.974 27.2281C130.841 28.4225 130.445 29.3516 129.784 30.1479ZM124.628 29.4843C125.157 30.0152 125.95 30.4133 126.744 30.4133C127.537 30.4133 128.33 30.1479 128.859 29.4843C129.387 28.9534 129.784 28.1571 129.784 27.2281C129.784 26.299 129.52 25.5027 128.859 24.9718C128.33 24.441 127.537 24.0428 126.744 24.0428C125.95 24.0428 125.157 24.3082 124.628 24.9718C124.1 25.5027 123.703 26.299 123.703 27.2281C123.703 28.1571 124.1 28.9534 124.628 29.4843Z" fill="white" stroke="white" stroke-width="0.2" stroke-miterlimit="10"/>
<path d="M135.071 31.2095V23.2463H137.98C138.641 23.2463 139.169 23.5118 139.566 23.9099C139.963 24.3081 140.227 24.839 140.227 25.5026C140.227 25.9007 140.095 26.1662 139.963 26.5643C139.83 26.8298 139.566 27.0952 139.169 27.2279C139.566 27.3606 139.83 27.6261 140.095 27.8915C140.359 28.1569 140.491 28.5551 140.491 29.086C140.491 29.7496 140.227 30.2805 139.83 30.6786C139.302 31.0768 138.773 31.3422 138.112 31.3422H135.071V31.2095ZM136.129 26.697H137.98C138.376 26.697 138.641 26.5643 138.905 26.2989C139.169 26.0334 139.302 25.768 139.302 25.5026C139.302 25.2371 139.169 24.9717 138.905 24.7062C138.641 24.4408 138.376 24.3081 137.98 24.3081H136.129V26.697ZM136.129 30.2805H138.244C138.641 30.2805 138.905 30.1477 139.169 29.8823C139.434 29.6169 139.566 29.3514 139.566 28.9533C139.566 28.6878 139.434 28.2897 139.169 28.0242C138.905 27.7588 138.641 27.6261 138.244 27.6261H136.261V30.2805H136.129Z" fill="white" stroke="white" stroke-width="0.2" stroke-miterlimit="10"/>
<defs>
<linearGradient id="paint0_linear" x1="42.1414" y1="25.5154" x2="19.8681" y2="47.6999" gradientUnits="userSpaceOnUse">
<stop stop-color="#00A0FF"/>
<stop offset="0.00657445" stop-color="#00A1FF"/>
<stop offset="0.2601" stop-color="#00BEFF"/>
<stop offset="0.5122" stop-color="#00D2FF"/>
<stop offset="0.7604" stop-color="#00DFFF"/>
<stop offset="1" stop-color="#00E3FF"/>
</linearGradient>
<linearGradient id="paint1_linear" x1="58.0501" y1="40.5021" x2="26.0642" y2="40.5021" gradientUnits="userSpaceOnUse">
<stop stop-color="#FFE000"/>
<stop offset="0.4087" stop-color="#FFBD00"/>
<stop offset="0.7754" stop-color="#FFA500"/>
<stop offset="1" stop-color="#FF9C00"/>
</linearGradient>
<linearGradient id="paint2_linear" x1="46.1432" y1="43.5474" x2="15.9388" y2="73.6314" gradientUnits="userSpaceOnUse">
<stop stop-color="#FF3A44"/>
<stop offset="1" stop-color="#C31162"/>
</linearGradient>
<linearGradient id="paint3_linear" x1="22.9707" y1="14.1901" x2="36.4583" y2="27.6238" gradientUnits="userSpaceOnUse">
<stop stop-color="#32A071"/>
<stop offset="0.0685" stop-color="#2DA771"/>
<stop offset="0.4762" stop-color="#15CF74"/>
<stop offset="0.8009" stop-color="#06E775"/>
<stop offset="1" stop-color="#00F076"/>
</linearGradient>
</defs>
</svg>
