<svg width="26" height="26" viewBox="0 0 26 26" fill="none" xmlns="http://www.w3.org/2000/svg">
<path d="M18.3801 2.24121H7.6215C4.65059 2.24121 2.24219 4.64961 2.24219 7.62052V18.3791C2.24219 21.3501 4.65059 23.7585 7.6215 23.7585H18.3801C21.351 23.7585 23.7594 21.3501 23.7594 18.3791V7.62052C23.7594 4.64961 21.351 2.24121 18.3801 2.24121Z" fill="url(#paint0_linear)" stroke="white" stroke-width="3" stroke-linecap="round" stroke-linejoin="round"/>
<path d="M17.3025 12.3226C17.4353 13.218 17.2824 14.1324 16.8655 14.9359C16.4486 15.7393 15.789 16.3909 14.9804 16.7978C14.1719 17.2048 13.2556 17.3464 12.362 17.2026C11.4683 17.0588 10.6427 16.6369 10.0026 15.9968C9.36259 15.3568 8.94065 14.5312 8.79685 13.6375C8.65304 12.7439 8.79469 11.8276 9.20165 11.0191C9.60861 10.2105 10.2601 9.5509 11.0636 9.134C11.8671 8.71711 12.7815 8.56417 13.6769 8.69694C14.5902 8.83238 15.4358 9.25797 16.0886 9.91085C16.7415 10.5637 17.1671 11.4093 17.3025 12.3226Z" fill="url(#paint1_linear)" stroke="white" stroke-width="3" stroke-linecap="round" stroke-linejoin="round"/>
<path d="M18.916 7.08301H18.9264" stroke="white" stroke-width="3" stroke-linecap="round" stroke-linejoin="round"/>
<defs>
<linearGradient id="paint0_linear" x1="13.0008" y1="2.24121" x2="13.0008" y2="23.7585" gradientUnits="userSpaceOnUse">
<stop stop-color="#F76201"/>
<stop offset="1" stop-color="#FF4D00"/>
</linearGradient>
<linearGradient id="paint1_linear" x1="13.0456" y1="8.65039" x2="13.0456" y2="17.2573" gradientUnits="userSpaceOnUse">
<stop stop-color="#F76201"/>
<stop offset="1" stop-color="#FF4D00"/>
</linearGradient>
</defs>
</svg>
