<svg width="17" height="24" viewBox="0 0 17 24" fill="none" xmlns="http://www.w3.org/2000/svg">
<path d="M8.39415 0C5.08524 0 2.3943 2.69093 2.3943 5.99985C2.3943 9.30876 5.08524 11.9997 8.39415 11.9997C11.7031 11.9997 14.394 9.30876 14.394 5.99985C14.394 2.69093 11.7031 0 8.39415 0ZM8.39415 8.99977C6.7397 8.99977 5.39423 7.65431 5.39423 5.99985C5.39423 4.34539 6.7397 2.99992 8.39415 2.99992C10.0486 2.99992 11.3941 4.34539 11.3941 5.99985C11.3941 7.65431 10.0486 8.99977 8.39415 8.99977Z" fill="white"/>
<path d="M16.35 11.8334C15.7635 11.2469 14.8155 11.2469 14.229 11.8334C11.0131 15.0493 5.77823 15.0493 2.56081 11.8334C1.97433 11.2469 1.02635 11.2469 0.439864 11.8334C-0.146621 12.4199 -0.146621 13.3679 0.439864 13.9559C2.30582 15.8218 4.67126 16.8853 7.1102 17.1628L2.8338 21.4392C2.24732 22.0257 2.24732 22.9736 2.8338 23.5601C3.42029 24.1466 4.36827 24.1466 4.95475 23.5601L8.39416 20.1207L11.8336 23.5601C12.1261 23.8526 12.5101 23.9996 12.8941 23.9996C13.278 23.9996 13.662 23.8526 13.9545 23.5601C14.541 22.9736 14.541 22.0257 13.9545 21.4392L9.67813 17.1628C12.1171 16.8853 14.4825 15.8218 16.3485 13.9559C16.9349 13.3694 16.9349 12.4199 16.35 11.8334Z" fill="white"/>
</svg>
