<svg width="26" height="16" viewBox="0 0 26 16" fill="none" xmlns="http://www.w3.org/2000/svg">
<path d="M24.4591 1.80036C24.6249 1.24004 24.4591 0.827637 23.6611 0.827637H21.0208C20.3484 0.827637 20.0391 1.18177 19.8732 1.57626C19.8732 1.57626 18.5285 4.85309 16.6277 6.97792C16.0137 7.59206 15.7312 7.78934 15.3951 7.78934C15.2293 7.78934 14.9737 7.59206 14.9737 7.03173V1.80036C14.9737 1.12796 14.7853 0.827637 14.2295 0.827637H10.0785C9.65711 0.827637 9.40608 1.14145 9.40608 1.4328C9.40608 2.0693 10.3564 2.21723 10.4551 4.01034V7.90141C10.4551 8.75314 10.3026 8.90994 9.96646 8.90994C9.06991 8.90994 6.89127 5.61967 5.60027 1.85417C5.34031 1.1235 5.08471 0.827637 4.40785 0.827637H1.76741C1.01432 0.827637 0.861877 1.18177 0.861877 1.57626C0.861877 2.2755 1.75844 5.7497 5.03532 10.34C7.21842 13.4734 10.2936 15.1725 13.0908 15.1725C14.7718 15.1725 14.978 14.7959 14.978 14.1459C14.978 11.1514 14.8256 10.8689 15.6684 10.8689C16.0584 10.8689 16.7308 11.0662 18.2999 12.5768C20.0928 14.3699 20.3887 15.1724 21.3928 15.1724H24.0332C24.7863 15.1724 25.1674 14.7959 24.9477 14.0516C24.4456 12.4872 21.0522 9.26859 20.8998 9.05341C20.5098 8.55135 20.6218 8.32714 20.8998 7.87884C20.9043 7.87448 24.1273 3.33794 24.4591 1.80036Z" fill="white"/>
</svg>
