<svg width="26" height="19" viewBox="0 0 26 19" fill="none" xmlns="http://www.w3.org/2000/svg">
<path d="M25.1559 4.52629C25.1559 4.52629 24.9096 2.78863 24.1546 2.02194C23.1954 1.01818 22.1202 1.01314 21.6276 0.953453C18.0976 0.69873 12.7989 0.69873 12.7989 0.69873C12.7989 0.69873 7.49931 0.69873 3.97019 0.954294C3.47755 1.01314 2.40234 1.01818 1.44314 2.02278C0.686534 2.78863 0.441059 4.52629 0.441059 4.52629C0.441059 4.52629 0.188858 6.22444 0.188858 8.26475V10.7876C0.188858 12.8279 0.441059 14.6034 0.441059 14.6034C0.441059 14.6034 0.686534 16.3402 1.44314 17.1061C2.40234 18.1107 3.6625 18.0796 4.22407 18.1846C6.24167 18.378 12.7989 18.3536 12.7989 18.3536C12.7989 18.3536 18.0976 18.4293 21.6276 18.1745C22.1202 18.1157 23.1954 18.1107 24.1546 17.1061C24.9096 16.3411 25.1559 14.6034 25.1559 14.6034C25.1559 14.6034 25.4089 12.8287 25.4089 10.7884V8.26559C25.4089 6.22445 25.1559 4.52629 25.1559 4.52629ZM10.1124 12.8943V6.16896L16.8377 9.53164L10.1124 12.8943Z" fill="white"/>
</svg>
