<svg width="18" height="18" viewBox="0 0 18 18" fill="none" xmlns="http://www.w3.org/2000/svg">
<path d="M9 17C13.4183 17 17 13.4183 17 9C17 4.58172 13.4183 1 9 1C4.58172 1 1 4.58172 1 9C1 13.4183 4.58172 17 9 17Z" stroke="#6F6F6F" stroke-linecap="round" stroke-linejoin="round"/>
<path d="M6.67188 6.60016C6.85996 6.0655 7.2312 5.61465 7.71984 5.32747C8.20848 5.04029 8.78299 4.93531 9.34162 5.03113C9.90024 5.12695 10.4069 5.41738 10.7719 5.85098C11.1369 6.28459 11.3367 6.83338 11.3359 7.40016C11.3359 9.00016 8.93587 9.80016 8.93587 9.80016" stroke="#6F6F6F" stroke-linecap="round" stroke-linejoin="round"/>
<path d="M9 13H9.008" stroke="#6F6F6F" stroke-linecap="round" stroke-linejoin="round"/>
</svg>
